#!OML:ASF I:\Actors\actors\Patient Classification 1\Patient 1\Session 1\Subject1.ASF
:FULLY-SPECIFIED
:DEGREES
913
root 0.238476 17.4898 9.27149 10.9511 -3.45306 -9.55515
lowerback -1.9655 1.21453 5.86588
upperback -9.12999 1.88262 1.24825
thorax -8.38162 0.545442 -2.0503
lowerneck -9.33157 -5.58262 -5.14423
upperneck 31.1481 -10.0403 9.14255
head 12.6176 -4.04102 3.00272
rclavicle 1.56046e-014 2.22639e-014
rhumerus 24.7272 33.8817 -80.3298
rradius 115.697
rwrist 38.8086
rhand -27.7122 -27.9371
rfingers 7.12502
rthumb -1.10797 302.086
lclavicle 1.56046e-014 2.22639e-014
lhumerus -3.94718 -41.3712 102.802
lradius 113.433
lwrist -24.5823
lhand -52.1515 -44.2865
lfingers 7.12502
lthumb -24.6528 -15.8544
rfemur -6.88822 18.4725 26.1845
rtibia 5.73238
rfoot -14.5666 -15.2403
rtoes -0.273332
lfemur 11.9908 -57.333 -14.6239
ltibia -4.74798
lfoot -59.3678 54.8703
ltoes 28.3931
914
root 0.236665 17.4892 9.2762 11.0299 -3.7688 -9.50933
lowerback -1.99719 1.1929 5.84134
upperback -9.18867 1.84942 1.21389
thorax -8.43002 0.526367 -2.0709
lowerneck -9.43292 -5.70089 -4.98769
upperneck 31.2941 -10.2301 9.00786
head 12.701 -4.11881 2.89478
rclavicle -4.67144e-015 -4.77083e-015
rhumerus 24.5767 33.1809 -80.3566
rradius 115.619
rwrist 38.7203
rhand -27.906 -26.2446
rfingers 7.12502
rthumb -1.29515 303.78
lclavicle -4.67144e-015 -4.77083e-015
lhumerus -3.93186 -41.7287 102.809
lradius 113.263
lwrist -24.6284
lhand -53.0443 -48.9383
lfingers 7.12502
lthumb -25.5082 -20.6258
rfemur -6.95372 18.6111 26.0697
rtibia 5.6855
rfoot -14.491 -15.0483
rtoes -0.219426
lfemur 12.3445 -57.6395 -15.0615
ltibia -4.719
lfoot -60.6368 54.9366
ltoes 29.0185
915
root 0.234479 17.4891 9.27946 11.0941 -4.00535 -9.50253
lowerback -2.00137 1.14113 5.84775
upperback -9.24687 1.78074 1.20815
thorax -8.49758 0.48818 -2.07731
lowerneck -9.43596 -5.79794 -4.91563
upperneck 31.3648 -10.3952 8.97073
head 12.7407 -4.18893 2.84397
rclavicle -4.87022e-015 -1.59028e-015
rhumerus 24.61 33.259 -79.9322
rradius 116.104
rwrist 38.2641
rhand -27.4888 -28.9651
rfingers 7.12502
rthumb -0.892184 301.057
lclavicle -4.87022e-015 -1.59028e-015
lhumerus -3.91499 -41.9902 102.847
lradius 112.987
lwrist -24.9568
lhand -53.6817 -50.5915
lfingers 7.12502
lthumb -26.1186 -22.3677
rfemur -6.98835 18.6822 26.0143
rtibia 5.60569
rfoot -14.3598 -14.8747
rtoes -0.268428
lfemur 12.4061 -57.5943 -15.1774
ltibia -4.67776
lfoot -61.0107 55.0076
ltoes 29.2626
916
root 0.233255 17.4891 9.28318 11.1537 -4.17098 -9.55177
lowerback -2.04156 1.02907 5.8913
upperback -9.28847 1.63329 1.27581
thorax -8.53382 0.41271 -2.02187
lowerneck -9.37157 -5.83335 -4.98434
upperneck 31.3525 -10.4665 9.04726
head 12.7382 -4.22482 2.87596
rclavicle -1.26228e-014 2.06736e-014
rhumerus 24.6436 33.3093 -79.7004
rradius 116.287
rwrist 38.1757
rhand -27.2252 -30.0109
rfingers 7.12502
rthumb -0.637586 300.01
lclavicle -1.26228e-014 2.06736e-014
lhumerus -3.93268 -42.0987 102.907
lradius 112.898
lwrist -24.9428
lhand -53.8614 -50.3843
lfingers 7.12502
lthumb -26.2906 -22.186
rfemur -7.0151 18.6097 26.0357
rtibia 5.53443
rfoot -14.2005 -14.6653
rtoes -0.527336
lfemur 12.343 -57.4149 -15.1099
ltibia -4.63827
lfoot -60.9004 55.0851
ltoes 29.1899
917
root 0.23222 17.4891 9.28787 11.2113 -4.33538 -9.64691
lowerback -2.08338 0.942577 5.99703
upperback -9.33618 1.52227 1.34361
thorax -8.57271 0.350372 -2.00252
lowerneck -9.33981 -5.83214 -4.96834
upperneck 31.3709 -10.4857 9.06851
head 12.7416 -4.23183 2.87948
rclavicle -7.85199e-015 1.59028e-014
rhumerus 24.5352 33.3111 -79.6027
rradius 116.351
rwrist 38.3254
rhand -27.1071 -30.2659
rfingers 7.12502
rthumb -0.523531 299.755
lclavicle -7.85199e-015 1.59028e-014
lhumerus -4.03793 -42.2247 103.022
lradius 112.871
lwrist -24.7953
lhand -53.8961 -50.4534
lfingers 7.12502
lthumb -26.3239 -22.2601
rfemur -7.03906 18.5989 26.1188
rtibia 5.51542
rfoot -14.1073 -14.4756
rtoes -0.516032
lfemur 12.3684 -57.3365 -15.059
ltibia -4.62782
lfoot -60.9936 55.128
ltoes 29.2425
918
root 0.230792 17.4893 9.29197 11.2498 -4.51895 -9.77141
lowerback -2.08225 0.843666 6.10306
upperback -9.39703 1.40111 1.44913
thorax -8.65354 0.283223 -1.94342
lowerneck -9.29412 -5.77686 -4.80901
upperneck 31.4198 -10.3994 8.90758
head 12.723 -4.19655 2.80419
rclavicle -4.77083e-015 2.3059e-014
rhumerus 24.3769 33.4639 -79.5534
rradius 116.408
rwrist 38.4275
rhand -27.0203 -30.3824
rfingers 7.12502
rthumb -0.43969 299.638
lclavicle -4.77083e-015 2.3059e-014
lhumerus -4.15976 -42.1813 103.146
lradius 112.663
lwrist -25.1381
lhand -54.194 -50.8725
lfingers 7.12502
lthumb -26.609 -22.7222
rfemur -7.05687 18.6723 26.2444
rtibia 5.55095
rfoot -14.0767 -14.3012
rtoes -0.214933
lfemur 12.4501 -57.2506 -15.0093
ltibia -4.64436
lfoot -61.2176 55.1046
ltoes 29.4973
919
root 0.231048 17.489 9.29541 11.2646 -4.62976 -9.83913
lowerback -2.07438 0.690827 6.16574
upperback -9.4521 1.20766 1.57097
thorax -8.73813 0.184468 -1.83893
lowerneck -9.23929 -5.70739 -4.75271
upperneck 31.4714 -10.2784 8.77214
head 12.7085 -4.15536 2.76201
rclavicle 1.31198e-014 -2.78299e-014
rhumerus 24.2671 33.7355 -79.5736
rradius 116.418
rwrist 38.493
rhand -27.0621 -30.3498
rfingers 7.12502
rthumb -0.480043 299.671
lclavicle 1.31198e-014 -2.78299e-014
lhumerus -4.23472 -42.0112 103.218
lradius 112.506
lwrist -25.3403
lhand -54.3446 -51.3659
lfingers 7.12502
lthumb -26.7531 -23.2375
rfemur -7.05913 18.7093 26.3079
rtibia 5.56884
rfoot -14.0635 -14.1701
rtoes 0.207732
lfemur 12.5233 -57.2142 -15.0274
ltibia -4.64277
lfoot -61.3983 55.1424
ltoes 29.7017
